<svg width="160" height="58" viewBox="0 0 160 58" fill="none" xmlns="http://www.w3.org/2000/svg">
<g clip-path="url(#clip0_580_8511)">
<path d="M45.1068 44.309V1.89449C45.1068 1.26241 44.5956 0.75 43.9636 0.75H38.2399C37.6078 0.75 37.0967 1.26241 37.0967 1.89449V44.309C37.0967 44.9411 37.6078 45.4535 38.2399 45.4535H43.9636C44.5956 45.4535 45.1068 44.9411 45.1068 44.309Z" fill="#0A7986" stroke="#0A7986" stroke-width="0.500001"/>
<path d="M86.9179 55.6358L86.9178 55.6359C86.5787 56.3923 87.1308 57.25 87.9609 57.25H93.9869C94.4418 57.25 94.8542 56.9791 95.0354 56.5619L112.659 15.9936C112.987 15.2385 112.435 14.3916 111.61 14.3916H105.592C105.119 14.3916 104.696 14.6831 104.526 15.123L97.8074 32.475V32.4751C97.5953 33.0241 96.8175 33.0227 96.6072 32.4718L89.984 15.1273C89.8149 14.6844 89.3902 14.3916 88.9164 14.3916H82.4602C81.6399 14.3916 81.0874 15.2303 81.4077 15.9843L92.6331 42.4099C92.7034 42.5761 92.7017 42.7639 92.628 42.9275L92.6279 42.9277L86.9179 55.6358Z" fill="#0A7986" stroke="#0A7986" stroke-width="0.500001"/>
<path d="M159.25 44.3085V2.27828C159.25 1.6462 158.739 1.13379 158.107 1.13379H152.383C151.751 1.13379 151.24 1.6462 151.24 2.27828V44.3085C151.24 44.9406 151.751 45.453 152.383 45.453H158.107C158.739 45.453 159.25 44.9406 159.25 44.3085Z" fill="#0A7986" stroke="#0A7986" stroke-width="0.500001"/>
<path d="M65.2106 14.3916C56.5929 14.3916 49.6064 21.3877 49.6064 30.0183C49.6064 38.6478 56.5918 45.645 65.2106 45.645C73.8284 45.645 80.8149 38.6489 80.8149 30.0183C80.8149 21.3888 73.8295 14.3916 65.2106 14.3916ZM65.2106 38.2506C60.6717 38.2506 56.9908 34.5658 56.9908 30.0183C56.9908 25.4709 60.6707 21.7861 65.2106 21.7861C69.7495 21.7861 73.4305 25.4709 73.4305 30.0183C73.4305 34.5658 69.7506 38.2506 65.2106 38.2506Z" fill="#0A7986" stroke="#0A7986" stroke-width="0.500001"/>
<path d="M1.46195 45.5044L8.49058 43.1226C10.9366 44.7174 13.8564 45.6468 16.9926 45.6468C25.6104 45.6468 32.5969 38.6507 32.5969 30.0201C32.5969 21.3895 25.6115 14.3924 16.9937 14.3924C13.974 14.3924 11.1547 15.2541 8.76629 16.7418L8.76115 1.48446C8.76115 1.48443 8.76115 1.4844 8.76115 1.48438C8.76111 1.18579 8.51953 0.943359 8.22047 0.943359H1.29068C0.991597 0.943359 0.75 1.18583 0.75 1.48446V44.9935C0.75 45.3619 1.11204 45.6231 1.46195 45.5044ZM16.9937 38.2513C12.4548 38.2513 8.77384 34.5665 8.77384 30.019C8.77384 25.4726 12.4538 21.7868 16.9937 21.7868C21.5326 21.7868 25.2136 25.4726 25.2136 30.019C25.2136 34.5665 21.5326 38.2513 16.9937 38.2513Z" fill="#0A7986" stroke="#0A7986" stroke-width="0.500001"/>
<path d="M144.377 14.5356L144.365 14.5399L144.353 14.5454L138.103 17.4331L137.473 16.9907L137.467 16.9871C134.964 15.3261 131.956 14.3652 128.722 14.3932C120.227 14.4664 113.268 21.4895 113.255 29.9952L113.486 29.9955L113.255 29.9952C113.242 38.6354 120.233 45.6455 128.859 45.6455C132.039 45.6455 134.898 44.7557 137.367 43.1173V43.1176L137.378 43.1091L137.852 42.7546L144.357 45.4957L144.365 45.4991L144.374 45.5019C144.726 45.6222 145.089 45.3592 145.089 44.989V15.0455V15.0441C145.087 14.6769 144.727 14.4168 144.377 14.5356ZM120.666 29.3504C120.98 25.3612 124.209 22.1275 128.192 21.8133C133.257 21.4137 137.452 25.614 137.052 30.6872V30.6873C136.738 34.6764 133.509 37.9101 129.527 38.2243C124.462 38.624 120.266 34.4237 120.666 29.3504Z" fill="#0A7986" stroke="#0A7986" stroke-width="0.500001"/>
</g>
<defs>
<clipPath id="clip0_580_8511">
<rect width="160" height="58" fill="white"/>
</clipPath>
</defs>
</svg>
