<svg width="20" height="20" viewBox="0 0 20 20" fill="none" xmlns="http://www.w3.org/2000/svg">
<path d="M17.8975 0.108398H2.10258C1.72189 0.108936 1.35691 0.299402 1.08772 0.638009C0.818533 0.976616 0.667115 1.43571 0.666687 1.91457V18.1701C0.667115 18.649 0.818533 19.1081 1.08772 19.4467C1.35691 19.7853 1.72189 19.9758 2.10258 19.9763H17.8975C18.2781 19.9758 18.6431 19.7853 18.9123 19.4467C19.1815 19.1081 19.3329 18.649 19.3334 18.1701V1.91457C19.3329 1.43571 19.1815 0.976616 18.9123 0.638009C18.6431 0.299402 18.2781 0.108936 17.8975 0.108398ZM17.8975 18.1701H2.10258V1.91457H17.8975L17.8984 18.1701H17.8975ZM14.3077 5.52692C14.3077 6.96401 13.8539 8.34223 13.046 9.3584C12.2382 10.3746 11.1425 10.9454 10 10.9454C8.85755 10.9454 7.76187 10.3746 6.95402 9.3584C6.14617 8.34223 5.69233 6.96401 5.69233 5.52692C5.69233 5.28741 5.76797 5.05771 5.90261 4.88834C6.03725 4.71898 6.21986 4.62384 6.41028 4.62384C6.60069 4.62384 6.7833 4.71898 6.91794 4.88834C7.05258 5.05771 7.12823 5.28741 7.12823 5.52692C7.12823 6.48498 7.43079 7.40379 7.96935 8.08124C8.50792 8.75869 9.23837 9.13927 10 9.13927C10.7617 9.13927 11.4921 8.75869 12.0307 8.08124C12.5693 7.40379 12.8718 6.48498 12.8718 5.52692C12.8718 5.28741 12.9475 5.05771 13.0821 4.88834C13.2167 4.71898 13.3994 4.62384 13.5898 4.62384C13.7802 4.62384 13.9628 4.71898 14.0974 4.88834C14.2321 5.05771 14.3077 5.28741 14.3077 5.52692Z" fill="#9D239A"/>
</svg>
