<svg width="245" height="169" viewBox="0 0 245 169" fill="none" xmlns="http://www.w3.org/2000/svg">
<g clip-path="url(#clip0_2205_23758)">
<path d="M97.8501 74.6568L98.6424 8.14048C98.6492 7.57071 99.3259 7.27636 99.7473 7.65991L106.699 13.9868C106.959 14.2237 107.36 14.2149 107.609 13.9665L114.476 7.13376C114.734 6.87737 115.15 6.87737 115.408 7.13376L122.254 13.9463C122.512 14.2026 122.928 14.2026 123.186 13.9463L130.054 7.11222C130.303 6.86443 130.702 6.85493 130.963 7.09059L138.587 13.988C138.849 14.2243 139.249 14.2142 139.498 13.9648L145.64 7.81193C146.058 7.39365 146.772 7.6924 146.768 8.2834L146.279 74.6044C146.275 75.21 145.526 75.4907 145.124 75.0376L140.65 69.9861C140.383 69.6843 139.91 69.6904 139.65 69.9993L134.841 75.7249C134.577 76.0392 134.093 76.0392 133.829 75.7249L129.073 70.0628C128.796 69.7332 128.283 69.7524 128.032 70.1017L124.013 75.6836C123.772 76.0184 123.286 76.0527 123 75.755L117.422 69.9435C117.15 69.6602 116.692 69.6753 116.439 69.9761L111.578 75.764C111.325 76.0647 110.867 76.0799 110.596 75.7966L104.944 69.9094C104.684 69.6385 104.251 69.6385 103.991 69.9094L98.987 75.1221C98.5724 75.554 97.843 75.2556 97.8501 74.6568Z" fill="#22FFB1" stroke="#22FFB1" stroke-width="1.98135"/>
<path d="M105.948 58.8701H140.592" stroke="#00095A" stroke-width="2.11815" stroke-linecap="round"/>
<path d="M129.166 64.167H140.591" stroke="#00095A" stroke-width="2.11815" stroke-linecap="round"/>
<path d="M97 5.01855H147.76L147.483 54.0428H97V5.01855Z" fill="#5764DA"/>
<path d="M97.0471 4.52423C97.3689 1.93991 99.5653 0 102.17 0H142.638C145.489 0 147.8 2.31109 147.8 5.16197C147.8 8.01285 145.489 10.3239 142.638 10.3239H102.17C99.0657 10.3239 96.6637 7.60434 97.0471 4.52423Z" fill="#5764DA"/>
<path d="M137.794 10.4398C137.846 12.0829 136.315 13.4345 134.556 13.4345H127.83C128.292 14.7228 128.541 16.0938 128.541 17.5278C128.541 23.7943 123.772 29.0301 117.452 30.2116L128.884 40.9264C129.491 41.4903 129.792 42.2389 129.792 42.9779C129.792 43.7168 129.491 44.4655 128.884 45.0294C127.675 46.1622 125.708 46.1622 124.499 45.0294L105.189 26.9349C105.049 26.8037 104.919 26.6578 104.816 26.512C104.463 26.021 104.281 25.457 104.281 24.8882C104.281 24.1394 104.587 23.4006 105.194 22.8317C105.802 22.263 106.549 22.0005 107.317 21.9811C108.033 21.9664 108.723 22.2533 109.226 22.7297C109.611 23.0894 110.031 23.4103 110.493 23.6923C111.712 24.4361 113.176 24.8687 114.743 24.8687C119.065 24.8687 122.568 21.5824 122.568 17.5376C122.568 16.0208 122.075 14.611 121.24 13.4442H107.379C106.523 13.4442 105.744 13.1184 105.184 12.5886C104.624 12.0587 104.276 11.3246 104.276 10.5224C104.276 8.923 105.667 7.62012 107.379 7.62012H134.696C135.552 7.62012 136.325 7.94583 136.886 8.47088C137.425 8.98134 137.768 9.67167 137.789 10.4398H137.794Z" fill="white"/>
<path d="M134.993 17.3828H113.884C112.805 17.3828 111.931 18.2572 111.931 19.3359V19.3359C111.931 20.4145 112.805 21.2889 113.884 21.2889H134.993C136.071 21.2889 136.946 20.4145 136.946 19.3359C136.946 18.2572 136.071 17.3828 134.993 17.3828Z" fill="white"/>
<path d="M128.545 41.2036L109.412 22.3915C108.076 21.0783 105.945 21.1117 104.651 22.4662C103.357 23.8206 103.391 25.9832 104.727 27.2965L123.859 46.1086C125.195 47.4218 127.327 47.3884 128.62 46.0339C129.914 44.6795 129.88 42.5169 128.545 41.2036Z" fill="#5764DA"/>
<path d="M107.386 24.4418C108.546 23.2276 110.451 23.1815 111.668 24.3381L130.534 42.2727C131.89 43.5616 131.806 45.7698 130.355 46.9469C129.172 47.9075 127.472 47.84 126.366 46.7887L107.493 28.8609C106.246 27.6765 106.198 25.6856 107.386 24.4418Z" fill="white"/>
<g clip-path="url(#clip1_2205_23758)">
<path d="M201.425 146.262C201.425 149.265 199.096 150.407 196.797 150.407C196.766 150.407 196.706 150.407 196.676 150.407C195.768 150.407 194.8 150.377 193.862 150.317C187.693 149.896 181.128 147.764 178.889 139.924C178.83 139.773 178.8 139.653 178.768 139.503L178.678 139.113C178.376 137.761 178.254 136.379 178.254 134.967V116.284H175.895C175.532 116.284 175.2 116.254 174.867 116.194C172.175 115.713 170.117 113.37 170.117 110.546C170.117 107.723 172.175 105.38 174.867 104.899C175.2 104.839 175.532 104.809 175.895 104.809H178.224V99.2822C178.224 98.4411 178.406 97.6601 178.709 96.9693C179.616 94.9567 181.642 93.5449 184.002 93.5449C186.361 93.5449 188.418 94.9567 189.296 96.9693C189.597 97.6902 189.779 98.4712 189.779 99.2822V104.809H195.738C198.945 104.809 201.546 107.392 201.546 110.577C201.546 113.76 198.945 116.344 195.738 116.344H189.809V134.577C189.809 138.782 193.258 141.456 197.492 141.456H196.767C196.767 141.456 197.16 141.486 197.342 141.516C200.82 141.636 201.425 144.189 201.425 146.262Z" fill="black"/>
<path d="M51.3601 126.616L57.2888 119.888C56.2906 119.557 55.2319 119.347 54.1126 119.347C48.6982 119.347 44.3121 123.703 44.3121 129.079C44.3121 129.47 44.3424 129.86 44.4028 130.251C44.4331 130.521 44.4633 130.792 44.5239 131.032C44.5542 131.182 44.5843 131.302 44.6146 131.452C44.6146 131.482 44.6146 131.482 44.6448 131.512C45.5826 135.327 48.8797 138.271 52.8724 138.752C53.2657 138.812 53.659 138.812 54.0521 138.812H54.1429C54.3547 138.812 54.5966 138.812 54.8084 138.782C56.8351 138.661 58.6802 137.911 60.1927 136.739C60.6161 136.529 61.0699 136.379 61.5236 136.258C61.9169 136.168 62.3403 136.108 62.7638 136.108C63.2175 136.108 63.6713 136.168 64.125 136.258C66.7263 136.859 68.6621 139.172 68.6621 141.936C68.6621 143.918 67.6641 145.69 66.1214 146.742C66.0911 146.772 66.0609 146.772 66.0609 146.802C62.31 149.325 57.7424 150.677 52.8422 150.376C42.1644 149.776 33.4529 141.185 32.7572 130.581C31.9404 118.206 41.8317 107.933 54.1126 107.933C57.5912 107.933 60.8884 108.774 63.7922 110.246C64.4879 110.606 65.1837 110.996 65.8491 111.417C66.1517 111.627 66.4844 111.837 66.7869 112.078L66.8171 112.108L67.6035 112.709C68.7829 113.61 69.5702 114.811 69.9327 116.103V116.133C70.0834 116.674 70.1743 117.214 70.1743 117.755C70.1445 118.806 69.782 119.828 69.0259 120.699L63.6713 126.796L58.408 132.714C56.714 134.636 53.7799 134.847 51.8137 133.165C49.8778 131.452 49.666 128.539 51.3601 126.616Z" fill="black"/>
<path d="M115.886 103.667C119.668 103.667 122.693 100.513 122.693 96.7586C122.693 93.154 119.668 90 115.886 90C112.015 90 108.929 93.154 108.929 96.7586C108.959 100.543 112.045 103.667 115.886 103.667Z" fill="black"/>
<path d="M115.825 107.902C112.619 107.902 110.018 110.486 110.018 113.67V144.669C110.018 147.853 112.619 150.436 115.825 150.436C119.031 150.436 121.634 147.853 121.634 144.669V113.64C121.602 110.456 119.001 107.902 115.825 107.902Z" fill="black"/>
<path d="M150.368 107.933C145.74 107.933 141.445 109.404 137.936 111.898C137.18 109.615 135.002 107.933 132.431 107.933C129.225 107.933 126.623 110.516 126.623 113.7V163.233C126.623 166.417 129.225 169 132.431 169C135.638 169 138.239 166.417 138.239 163.233L138.48 146.682C141.928 149.055 145.861 150.436 150.368 150.436C162.196 150.436 171.754 140.914 171.754 129.2C171.754 117.425 162.166 107.933 150.368 107.933ZM150.277 138.782C144.923 138.782 140.598 134.486 140.598 129.17C140.598 123.853 144.923 119.557 150.277 119.557C155.632 119.557 159.957 123.853 159.957 129.17C159.957 134.486 155.601 138.782 150.277 138.782Z" fill="black"/>
<path d="M222.964 107.933C211.137 107.933 201.578 117.455 201.578 129.17C201.578 140.884 211.167 150.406 222.964 150.406C234.791 150.406 244.349 140.884 244.349 129.17C244.349 117.455 234.791 107.933 222.964 107.933ZM222.964 139.412C217.639 139.412 213.314 135.117 213.314 129.83C213.314 124.544 217.639 120.248 222.964 120.248C228.288 120.248 232.613 124.544 232.613 129.83C232.613 135.117 228.317 139.412 222.964 139.412Z" fill="black"/>
<path d="M32.6685 114.901C32.6685 118.296 29.8857 121.059 26.4675 121.059C25.8929 121.059 25.3484 120.969 24.8342 120.849C24.6224 120.759 24.3804 120.699 24.1385 120.608C23.2613 120.338 22.3538 120.218 21.3858 120.218C16.8788 120.218 13.0976 123.282 12.0389 127.427V127.457C11.8574 128.028 11.7364 128.629 11.7364 129.229V144.669C11.7364 145.78 11.434 146.802 10.8592 147.673C9.83081 149.325 7.9857 150.436 5.86829 150.436C2.63163 150.436 0 147.853 0 144.669V113.67C0 110.486 2.63163 107.902 5.86829 107.902C7.9857 107.902 9.86108 109.014 10.8592 110.666C13.9748 108.924 17.5442 107.902 21.3858 107.902C23.6243 107.902 25.7718 108.233 27.7985 108.864C28.3128 109.014 28.7967 109.194 29.3109 109.404C31.3074 110.456 32.6685 112.528 32.6685 114.901Z" fill="black"/>
<path d="M105.449 142.746C105.479 142.866 105.479 142.986 105.479 143.076C105.479 145.269 104.269 147.161 102.454 148.152C102.272 148.242 102.122 148.333 101.94 148.393C99.1867 149.684 96.0713 150.405 92.835 150.405C80.5538 150.405 70.693 140.132 71.479 127.757C72.1455 117.303 80.6149 108.772 91.111 107.961C95.0124 107.661 98.7035 108.382 101.94 109.914C102.122 110.004 102.304 110.064 102.484 110.184C104.269 111.146 105.51 113.068 105.51 115.231C105.51 115.351 105.51 115.441 105.479 115.531C105.358 118.054 103.573 120.157 101.184 120.788C100.7 120.908 100.216 120.998 99.7012 120.998C98.8541 120.998 98.0383 120.818 97.2822 120.487C96.0116 119.887 94.6201 119.556 93.1378 119.556C87.8137 119.556 83.4575 123.852 83.4575 129.168C83.4575 134.485 87.7838 138.781 93.1378 138.781C94.559 138.781 95.9505 138.48 97.1614 137.909C97.2822 137.849 97.3731 137.819 97.4627 137.759C98.1292 137.489 98.8854 137.309 99.6713 137.309C100.277 137.309 100.881 137.399 101.425 137.579C103.664 138.3 105.298 140.312 105.449 142.746Z" fill="black"/>
</g>
</g>
<defs>
<clipPath id="clip0_2205_23758">
<rect width="244.349" height="169" fill="white"/>
</clipPath>
<clipPath id="clip1_2205_23758">
<rect width="244.349" height="79" fill="white" transform="translate(0 90)"/>
</clipPath>
</defs>
</svg>
