<svg width="230" height="59" viewBox="0 0 230 59" fill="none" xmlns="http://www.w3.org/2000/svg">
<g clip-path="url(#clip0_2198_17678)">
<path d="M198.381 42.0173C198.381 44.2606 196.665 45.1131 194.972 45.1131C194.949 45.1131 194.905 45.1131 194.883 45.1131C194.214 45.1131 193.501 45.0907 192.81 45.0458C188.265 44.7317 183.429 43.139 181.78 37.2838C181.736 37.1716 181.714 37.0819 181.691 36.9697L181.624 36.6781C181.402 35.6686 181.312 34.6367 181.312 33.5823V19.6286H179.574C179.307 19.6286 179.062 19.6062 178.817 19.5613C176.834 19.2024 175.318 17.4526 175.318 15.3438C175.318 13.2351 176.834 11.4853 178.817 11.1264C179.062 11.0815 179.307 11.059 179.574 11.059H181.29V6.93128C181.29 6.30315 181.424 5.71988 181.647 5.20391C182.315 3.70086 183.808 2.64648 185.546 2.64648C187.284 2.64648 188.799 3.70086 189.446 5.20391C189.668 5.74231 189.802 6.32558 189.802 6.93128V11.059H194.192C196.554 11.059 198.47 12.9883 198.47 15.3663C198.47 17.7442 196.554 19.6735 194.192 19.6735H189.824V33.2906C189.824 36.4313 192.365 38.4279 195.484 38.4279H194.95C194.95 38.4279 195.239 38.4503 195.373 38.4728C197.935 38.5625 198.381 40.4694 198.381 42.0173Z" fill="black"/>
<path d="M87.8344 27.3462L92.2018 22.3211C91.4665 22.0743 90.6866 21.9173 89.8621 21.9173C85.8735 21.9173 82.6425 25.1702 82.6425 29.1858C82.6425 29.4774 82.6648 29.769 82.7093 30.0607C82.7316 30.2626 82.7539 30.4645 82.7985 30.6439C82.8208 30.7561 82.843 30.8458 82.8653 30.958C82.8653 30.9804 82.8653 30.9804 82.8876 31.0029C83.5784 33.8519 86.0072 36.0504 88.9485 36.4093C89.2382 36.4542 89.5279 36.4542 89.8175 36.4542H89.8844C90.0404 36.4542 90.2186 36.4542 90.3746 36.4318C91.8676 36.342 93.2268 35.7812 94.341 34.9063C94.6529 34.7493 94.9872 34.6371 95.3214 34.5474C95.6111 34.4801 95.923 34.4352 96.235 34.4352C96.5692 34.4352 96.9035 34.4801 97.2377 34.5474C99.154 34.996 100.58 36.7234 100.58 38.7873C100.58 40.2679 99.8448 41.5915 98.7084 42.3767C98.6861 42.3991 98.6638 42.3991 98.6638 42.4215C95.9007 44.3059 92.536 45.3154 88.9262 45.0911C81.0604 44.6424 74.643 38.2265 74.1305 30.3074C73.5288 21.0648 80.8153 13.3926 89.8621 13.3926C92.4246 13.3926 94.8535 14.0207 96.9926 15.12C97.5051 15.3892 98.0176 15.6808 98.5078 15.9949C98.7307 16.1519 98.9758 16.3089 99.1986 16.4884L99.2209 16.5108L99.8002 16.9595C100.669 17.6325 101.249 18.5298 101.516 19.4945V19.5169C101.627 19.9207 101.694 20.3245 101.694 20.7283C101.672 21.5135 101.405 22.2762 100.848 22.9268L96.9035 27.4808L93.0263 31.9002C91.7784 33.336 89.617 33.493 88.1686 32.2367C86.7425 30.958 86.5865 28.782 87.8344 27.3462Z" fill="black"/>
<path d="M135.367 10.2072C138.153 10.2072 140.381 7.85172 140.381 5.04754C140.381 2.35552 138.153 0 135.367 0C132.515 0 130.242 2.35552 130.242 5.04754C130.264 7.87416 132.537 10.2072 135.367 10.2072Z" fill="black"/>
<path d="M135.323 13.3711C132.961 13.3711 131.045 15.3004 131.045 17.6783V40.8297C131.045 43.2076 132.961 45.1369 135.323 45.1369C137.685 45.1369 139.602 43.2076 139.602 40.8297V17.6559C139.579 15.2779 137.663 13.3711 135.323 13.3711Z" fill="black"/>
<path d="M160.769 13.3926C157.36 13.3926 154.196 14.4918 151.611 16.3538C151.054 14.6488 149.45 13.3926 147.556 13.3926C145.194 13.3926 143.277 15.3219 143.277 17.6998V54.6926C143.277 57.0706 145.194 58.9999 147.556 58.9999C149.918 58.9999 151.834 57.0706 151.834 54.6926L152.012 42.3318C154.552 44.104 157.449 45.136 160.769 45.136C169.482 45.136 176.523 38.0246 176.523 29.2755C176.523 20.4816 169.46 13.3926 160.769 13.3926ZM160.702 36.4318C156.758 36.4318 153.572 33.2238 153.572 29.2531C153.572 25.2823 156.758 22.0743 160.702 22.0743C164.647 22.0743 167.833 25.2823 167.833 29.2531C167.833 33.2238 164.624 36.4318 160.702 36.4318Z" fill="black"/>
<path d="M214.246 13.3926C205.534 13.3926 198.492 20.504 198.492 29.2531C198.492 38.0021 205.556 45.1135 214.246 45.1135C222.959 45.1135 230 38.0021 230 29.2531C230 20.504 222.959 13.3926 214.246 13.3926ZM214.246 36.9029C210.324 36.9029 207.138 33.6949 207.138 29.7466C207.138 25.7983 210.324 22.5903 214.246 22.5903C218.168 22.5903 221.354 25.7983 221.354 29.7466C221.354 33.6949 218.19 36.9029 214.246 36.9029Z" fill="black"/>
<path d="M74.0654 18.5981C74.0654 21.1331 72.0154 23.197 69.4974 23.197C69.0741 23.197 68.673 23.1297 68.2942 23.0399C68.1382 22.9726 67.9599 22.9278 67.7817 22.8605C67.1355 22.6586 66.467 22.5688 65.7539 22.5688C62.4338 22.5688 59.6484 24.857 58.8685 27.9529V27.9753C58.7348 28.4015 58.6457 28.8502 58.6457 29.2989V40.8297C58.6457 41.6597 58.4229 42.4225 57.9995 43.073C57.2419 44.3069 55.8827 45.1369 54.3229 45.1369C51.9386 45.1369 50 43.2076 50 40.8297V17.6783C50 15.3004 51.9386 13.3711 54.3229 13.3711C55.8827 13.3711 57.2642 14.2011 57.9995 15.435C60.2946 14.1338 62.924 13.3711 65.7539 13.3711C67.4029 13.3711 68.9849 13.6179 70.4779 14.089C70.8567 14.2011 71.2132 14.3357 71.592 14.4928C73.0627 15.2779 74.0654 16.8258 74.0654 18.5981Z" fill="black"/>
<path d="M127.679 39.3932C127.701 39.483 127.701 39.5727 127.701 39.64C127.701 41.2776 126.81 42.6909 125.473 43.4312C125.339 43.4985 125.228 43.5659 125.094 43.6107C123.066 44.5754 120.771 45.1138 118.387 45.1138C109.34 45.1138 102.076 37.4415 102.655 28.1989C103.146 20.3921 109.385 14.0209 117.117 13.4152C119.991 13.1909 122.71 13.7293 125.094 14.8734C125.228 14.9407 125.362 14.9856 125.495 15.0753C126.81 15.7932 127.724 17.2289 127.724 18.8441C127.724 18.9339 127.724 19.0012 127.701 19.0685C127.612 20.9529 126.297 22.5232 124.537 22.9943C124.181 23.0841 123.824 23.1514 123.445 23.1514C122.821 23.1514 122.22 23.0168 121.663 22.77C120.727 22.3213 119.702 22.0746 118.61 22.0746C114.688 22.0746 111.479 25.2826 111.479 29.2533C111.479 33.224 114.666 36.432 118.61 36.432C119.657 36.432 120.682 36.2077 121.574 35.7814C121.663 35.7366 121.73 35.7141 121.796 35.6693C122.287 35.4674 122.844 35.3328 123.423 35.3328C123.869 35.3328 124.314 35.4001 124.715 35.5347C126.364 36.0731 127.568 37.5761 127.679 39.3932Z" fill="black"/>
<path d="M1.01908 52.8849L1.54845 8.43958C1.55299 8.05887 2.00518 7.86219 2.28676 8.11847L6.93178 12.346C7.10575 12.5043 7.37334 12.4984 7.54009 12.3324L12.1282 7.7669C12.3004 7.59559 12.5786 7.59559 12.7508 7.7669L17.3254 12.3189C17.4976 12.4902 17.7758 12.4902 17.948 12.3189L22.537 7.75251C22.7034 7.58694 22.9703 7.58059 23.1444 7.73806L28.2392 12.3468C28.4137 12.5047 28.6813 12.4979 28.8475 12.3313L32.9517 8.22005C33.2307 7.94056 33.7082 8.14018 33.7053 8.53508L33.3787 52.8499C33.3757 53.2545 32.8752 53.4421 32.607 53.1393L29.6175 49.764C29.4388 49.5623 29.1226 49.5664 28.9493 49.7728L25.7357 53.5986C25.5593 53.8086 25.2362 53.8086 25.0599 53.5986L21.882 49.8152C21.6969 49.595 21.354 49.6078 21.1859 49.8412L18.5006 53.571C18.3395 53.7947 18.015 53.8176 17.8241 53.6187L14.0964 49.7355C13.9147 49.5462 13.6089 49.5563 13.4401 49.7573L10.1916 53.6247C10.0228 53.8256 9.71708 53.8358 9.53536 53.6465L5.75906 49.7127C5.58538 49.5317 5.29602 49.5317 5.12234 49.7127L1.77871 53.1958C1.50165 53.4844 1.01432 53.285 1.01908 52.8849Z" fill="#22FFB1" stroke="#22FFB1" stroke-width="1.32391"/>
<path d="M6.43018 42.3374H29.5786" stroke="#00095A" stroke-width="1.41532" stroke-linecap="round"/>
<path d="M21.9438 45.8765H29.5782" stroke="#00095A" stroke-width="1.41532" stroke-linecap="round"/>
<path d="M0.451172 6.35352H34.3684L34.1835 39.1109H0.451172V6.35352Z" fill="#5764DA"/>
<path d="M0.482495 6.02303C0.697481 4.29622 2.16509 3 3.90522 3H30.946C32.851 3 34.3952 4.54424 34.3952 6.44916C34.3952 8.35408 32.8509 9.89832 30.946 9.89832H3.90523C1.83125 9.89832 0.226264 8.08112 0.482495 6.02303Z" fill="#5764DA"/>
<path d="M27.7087 9.97587C27.7434 11.0738 26.7205 11.9769 25.545 11.9769H21.0512C21.3598 12.8377 21.5263 13.7538 21.5263 14.712C21.5263 18.8992 18.3397 22.3977 14.1163 23.1871L21.7551 30.3466C22.1608 30.7234 22.3619 31.2236 22.3619 31.7174C22.3619 32.2111 22.1608 32.7114 21.7551 33.0882C20.9472 33.8451 19.633 33.8451 18.8251 33.0882L5.92277 20.9977C5.82915 20.91 5.74246 20.8125 5.67311 20.7151C5.43733 20.387 5.31597 20.0102 5.31597 19.6301C5.31597 19.1298 5.52055 18.6361 5.92624 18.256C6.33193 17.876 6.83124 17.7006 7.34442 17.6876C7.82293 17.6778 8.2841 17.8695 8.62044 18.1878C8.87703 18.4282 9.15789 18.6426 9.46649 18.831C10.2813 19.328 11.2592 19.6171 12.3063 19.6171C15.1947 19.6171 17.5352 17.4212 17.5352 14.7185C17.5352 13.705 17.2058 12.763 16.6476 11.9834H7.38603C6.8139 11.9834 6.29379 11.7657 5.9193 11.4117C5.54482 11.0576 5.3125 10.5671 5.3125 10.0311C5.3125 8.96237 6.24177 8.0918 7.38603 8.0918H25.6386C26.2108 8.0918 26.7274 8.30944 27.1019 8.66027C27.4625 9.00135 27.6914 9.46262 27.7052 9.97587H27.7087Z" fill="white"/>
<path d="M25.8375 14.6152H11.7327C11.012 14.6152 10.4277 15.1995 10.4277 15.9202V15.9202C10.4277 16.641 11.012 17.2252 11.7327 17.2252H25.8375C26.5583 17.2252 27.1425 16.641 27.1425 15.9202C27.1425 15.1995 26.5583 14.6152 25.8375 14.6152Z" fill="white"/>
<path d="M21.529 30.5319L8.74481 17.9619C7.85237 17.0844 6.4281 17.1067 5.56362 18.0118C4.69913 18.9168 4.72179 20.3618 5.61423 21.2393L18.3984 33.8093C19.2908 34.6868 20.7151 34.6645 21.5796 33.7594C22.4441 32.8544 22.4214 31.4094 21.529 30.5319Z" fill="#5764DA"/>
<path d="M7.39095 19.3309C8.16591 18.5196 9.43916 18.4888 10.2521 19.2616L22.8583 31.2453C23.7642 32.1065 23.7078 33.582 22.7388 34.3685C21.948 35.0104 20.8123 34.9653 20.0728 34.2628L7.46233 22.2837C6.62924 21.4923 6.59709 20.162 7.39095 19.3309Z" fill="white"/>
</g>
<defs>
<clipPath id="clip0_2198_17678">
<rect width="230" height="59" fill="white"/>
</clipPath>
</defs>
</svg>
