<svg width="115" height="37" viewBox="0 0 115 37" fill="none" xmlns="http://www.w3.org/2000/svg">
<path d="M94.3379 26.3503C94.3379 27.7571 93.2469 28.2917 92.1706 28.2917C92.1559 28.2917 92.128 28.2917 92.114 28.2917C91.6886 28.2917 91.2353 28.2777 90.796 28.2495C87.9063 28.0525 84.8317 27.0537 83.7833 23.3818C83.7553 23.3115 83.7413 23.2552 83.7267 23.1849L83.6841 23.002C83.5429 22.3689 83.4857 21.7218 83.4857 21.0606V12.3099H82.3807C82.211 12.3099 82.0552 12.2959 81.8994 12.2677C80.6387 12.0427 79.6748 10.9453 79.6748 9.62287C79.6748 8.30047 80.6387 7.20314 81.8994 6.97807C82.0552 6.94991 82.211 6.9358 82.3807 6.9358H83.4717V4.34723C83.4717 3.95332 83.5569 3.58754 83.6987 3.26397C84.1234 2.32138 85.0726 1.66016 86.1776 1.66016C87.2826 1.66016 88.2458 2.32138 88.6572 3.26397C88.7983 3.60161 88.8835 3.96739 88.8835 4.34723V6.9358H91.6746C93.1764 6.9358 94.3945 8.1457 94.3945 9.63698C94.3945 11.1282 93.1764 12.3381 91.6746 12.3381H88.8975V20.8776C88.8975 22.8472 90.5131 24.0993 92.4961 24.0993H92.1566C92.1566 24.0993 92.3403 24.1134 92.4255 24.1275C94.0544 24.1837 94.3379 25.3796 94.3379 26.3503Z" fill="black"/>
<path d="M24.0542 17.149L26.8309 13.9977C26.3634 13.8429 25.8676 13.7444 25.3434 13.7444C22.8075 13.7444 20.7533 15.7844 20.7533 18.3026C20.7533 18.4855 20.7674 18.6684 20.7957 18.8513C20.8099 18.9779 20.8241 19.1045 20.8524 19.217C20.8666 19.2874 20.8807 19.3437 20.8949 19.414C20.8949 19.4281 20.8949 19.4281 20.9091 19.4422C21.3483 21.2288 22.8925 22.6075 24.7625 22.8326C24.9467 22.8608 25.1309 22.8608 25.315 22.8608H25.3576C25.4567 22.8608 25.57 22.8608 25.6692 22.8467C26.6185 22.7904 27.4826 22.4387 28.191 21.8901C28.3893 21.7916 28.6018 21.7212 28.8143 21.665C28.9985 21.6228 29.1968 21.5946 29.3952 21.5946C29.6077 21.5946 29.8202 21.6228 30.0327 21.665C31.251 21.9463 32.1577 23.0296 32.1577 24.3239C32.1577 25.2524 31.6902 26.0825 30.9677 26.5749C30.9536 26.5889 30.9394 26.5889 30.9394 26.603C29.1826 27.7847 27.0434 28.4178 24.7483 28.2771C19.7474 27.9957 15.6673 23.9722 15.3414 19.006C14.9589 13.2098 19.5915 8.39844 25.3434 8.39844C26.9726 8.39844 28.5168 8.79233 29.8769 9.48172C30.2027 9.65054 30.5285 9.83341 30.8402 10.0304C30.9819 10.1288 31.1377 10.2273 31.2794 10.3399L31.2936 10.3539L31.6619 10.6353C32.2143 11.0574 32.583 11.6201 32.7528 12.225V12.2391C32.8233 12.4923 32.8659 12.7456 32.8659 12.9988C32.852 13.4912 32.6822 13.9695 32.3281 14.3775L29.8202 17.2334L27.3551 20.0049C26.5617 20.9053 25.1875 21.0038 24.2667 20.2159C23.36 19.414 23.2608 18.0494 24.0542 17.149Z" fill="black"/>
<path d="M54.2755 6.40112C56.0468 6.40112 57.4633 4.92395 57.4633 3.1654C57.4633 1.47719 56.0468 0 54.2755 0C52.4622 0 51.0171 1.47719 51.0171 3.1654C51.0311 4.93803 52.4762 6.40112 54.2755 6.40112Z" fill="black"/>
<path d="M54.2467 8.38477C52.745 8.38477 51.5269 9.59466 51.5269 11.0859V25.6045C51.5269 27.0958 52.745 28.3057 54.2467 28.3057C55.7485 28.3057 56.9673 27.0958 56.9673 25.6045V11.0718C56.9527 9.58055 55.7345 8.38477 54.2467 8.38477Z" fill="black"/>
<path d="M70.4254 8.39844C68.258 8.39844 66.2464 9.08777 64.6028 10.2555C64.2487 9.18622 63.2289 8.39844 62.0247 8.39844C60.523 8.39844 59.3042 9.60834 59.3042 11.0996V34.2984C59.3042 35.7897 60.523 36.9996 62.0247 36.9996C63.5265 36.9996 64.7446 35.7897 64.7446 34.2984L64.8578 26.5467C66.4727 27.6581 68.3146 28.3053 70.4254 28.3053C75.965 28.3053 80.4416 23.8456 80.4416 18.3589C80.4416 12.8441 75.951 8.39844 70.4254 8.39844ZM70.3828 22.8467C67.8752 22.8467 65.8496 20.8349 65.8496 18.3448C65.8496 15.8547 67.8752 13.8429 70.3828 13.8429C72.891 13.8429 74.9166 15.8547 74.9166 18.3448C74.9166 20.8349 72.8763 22.8467 70.3828 22.8467Z" fill="black"/>
<path d="M104.426 8.39844C98.8869 8.39844 94.4097 12.8581 94.4097 18.3448C94.4097 23.8315 98.9009 28.2912 104.426 28.2912C109.965 28.2912 114.442 23.8315 114.442 18.3448C114.442 12.8581 109.965 8.39844 104.426 8.39844ZM104.426 23.1422C101.932 23.1422 99.9067 21.1304 99.9067 18.6543C99.9067 16.1783 101.932 14.1665 104.426 14.1665C106.919 14.1665 108.945 16.1783 108.945 18.6543C108.945 21.1304 106.933 23.1422 104.426 23.1422Z" fill="black"/>
<path d="M15.3005 11.6627C15.3005 13.2525 13.9971 14.5468 12.3962 14.5468C12.1271 14.5468 11.872 14.5046 11.6312 14.4482C11.532 14.406 11.4187 14.3779 11.3054 14.3357C10.8945 14.2091 10.4695 14.1528 10.0161 14.1528C7.90524 14.1528 6.13432 15.5878 5.63847 17.5293V17.5433C5.55347 17.8106 5.49682 18.092 5.49682 18.3734V25.6045C5.49682 26.1251 5.35517 26.6034 5.08597 27.0114C4.6043 27.7852 3.74014 28.3057 2.74844 28.3057C1.23253 28.3057 0 27.0958 0 25.6045V11.0859C0 9.59466 1.23253 8.38477 2.74844 8.38477C3.74014 8.38477 4.61848 8.90527 5.08597 9.67907C6.54517 8.86307 8.2169 8.38477 10.0161 8.38477C11.0645 8.38477 12.0703 8.53954 13.0196 8.83497C13.2604 8.90527 13.4871 8.98968 13.7279 9.0882C14.663 9.58055 15.3005 10.5513 15.3005 11.6627Z" fill="black"/>
<path d="M49.387 24.7035C49.401 24.7598 49.401 24.816 49.401 24.8582C49.401 25.8852 48.8345 26.7715 47.9845 27.2358C47.8993 27.278 47.8287 27.3202 47.7435 27.3483C46.4542 27.9533 44.995 28.291 43.4793 28.291C37.7274 28.291 33.109 23.4795 33.4771 17.6833C33.7893 12.7875 37.756 8.79205 42.6719 8.4122C44.4991 8.27154 46.2278 8.60918 47.7435 9.32667C47.8287 9.36887 47.9139 9.39703 47.9985 9.45328C48.8345 9.90349 49.4157 10.8038 49.4157 11.8168C49.4157 11.8731 49.4157 11.9153 49.401 11.9575C49.3444 13.1392 48.5084 14.124 47.3894 14.4194C47.1631 14.4757 46.9361 14.518 46.6951 14.518C46.2984 14.518 45.9163 14.4335 45.5622 14.2788C44.9671 13.9974 44.3154 13.8427 43.6211 13.8427C41.1275 13.8427 39.0873 15.8545 39.0873 18.3446C39.0873 20.8347 41.1136 22.8465 43.6211 22.8465C44.2868 22.8465 44.9384 22.7058 45.5056 22.4384C45.5622 22.4104 45.6047 22.3962 45.6467 22.3681C45.9589 22.2415 46.313 22.1571 46.6811 22.1571C46.9647 22.1571 47.2476 22.1993 47.5026 22.2837C48.551 22.6214 49.3165 23.5639 49.387 24.7035Z" fill="black"/>
</svg>
