<?xml version="1.0" encoding="utf-8"?>
<!-- Generator: Adobe Illustrator 27.1.1, SVG Export Plug-In . SVG Version: 6.00 Build 0)  -->
<svg version="1.1" id="Layer_1" xmlns="http://www.w3.org/2000/svg" xmlns:xlink="http://www.w3.org/1999/xlink" x="0px" y="0px"
	 viewBox="0 0 243.49 84.39" style="enable-background:new 0 0 243.49 84.39;" xml:space="preserve">
<path d="M61.92,61.47c-4.97,0-8.84-1.39-11.6-4.17c-2.77-2.78-4.15-6.64-4.15-11.58s0.98-9.4,2.94-13.38
	c1.96-3.97,4.64-6.98,8.05-9.04s7.35-3.08,11.83-3.08c4.45,0,7.96,1.01,10.51,3.02c2.55,2.02,3.83,4.7,3.83,8.05
	c0,4.71-1.83,8.33-5.5,10.85c-3.67,2.52-8.97,3.78-15.91,3.78h-4.07v0.56c0,3.47,1.92,6.2,5.77,6.2c1.85,0,5.67-0.28,7.45-0.83
	c1.78-0.55,3.81-1.42,6.08-2.62v8.63c-2.62,1.34-5.07,2.27-7.35,2.79C67.52,61.21,64.9,61.47,61.92,61.47z M65.47,29.44
	c-1.42,0.18-2.77,0.81-4.01,2.44c-1.24,1.63-1.99,3.47-2.25,5.54h3.02c2.55,0,4.56-0.49,6.01-1.46c1.45-0.97,2.18-2.26,2.18-3.85
	c0-0.75-0.23-1.38-0.7-1.9C69.26,29.7,67.81,29.15,65.47,29.44z"/>
<path d="M125.82,60.77h-13.61l8.4-39.83h13.68L125.82,60.77z M122.27,12.18c0-2.41,0.7-4.24,2.09-5.48
	c1.39-1.24,3.35-1.86,5.85-1.86c2.13,0,3.78,0.43,4.94,1.28s1.74,2.08,1.74,3.67c0,2.34-0.68,4.15-2.04,5.43
	c-1.36,1.28-3.32,1.92-5.87,1.92C124.51,17.14,122.27,15.49,122.27,12.18z"/>
<path d="M47.18,60.25H33.94c-0.15,0-0.29-0.06-0.38-0.17L6.97,29.36c-0.25-0.29-0.03-0.71,0.37-0.71H19.7v-0.03h2.68
	c2.86,0,6.2-0.16,7.6-1.42s1.98-3.85,1.87-5.65c-0.14-2.18-1.36-3.4-2.81-4.55c-0.6-0.47-1.85-0.98-4.52-0.97H6.86l5.55-9.42H58.9
	l-6.52,9.37l-7.73-0.05c-0.81,0.02-3.34,0-3.34,0c1.84,1.22,3.48,4.08,3.48,6.34c0,3.15-1,6-3,8.54c-1.98,2.5-7.72,4.91-15.68,5"/>
<path d="M110.02,49.55c-1.01,0.46-1.98,0.86-2.92,1.18c-1.58,0.54-3.22,0.81-4.9,0.81c-1.52,0-3.64-1.5-4.34-2.49
	s-1.05-2.56-1.05-4.69c0-2.16,0.4-4.35,1.2-6.59c0.8-2.24,2.82-4.92,4.06-6.04c1.24-1.12,2.59-1.69,4.04-1.69
	c2.06,0,4.56,0.65,7.5,1.93l2.49-9.84c-3.37-1.25-6.92-1.89-10.65-1.89c-4.13,0-7.81,1.07-11.06,3.22
	c-3.25,2.14-5.77,5.13-7.56,8.96s-2.69,8.1-2.69,12.81c0,5.18,1.31,9.18,3.92,12.01c2.61,2.82,6.25,4.24,10.92,4.24
	c2.77,0,5.19-0.27,7.26-0.81c0.37-0.1,0.73-0.21,1.1-0.32L110.02,49.55z"/>
<path d="M166.46,24.15c-2.09-2.61-4.96-3.92-8.61-3.92c-3.8,0-7.54,1.72-9.79,5.16l0.86-4.46h-9.86l-12.09,57.13h11.61l1.79-8.65
	c1.03-4.8,2.22-9.26,3.13-13.04c2.06,3.4,4.89,5.1,8.24,5.1c3.21,0,6.17-1.13,8.88-3.39s4.88-5.5,6.52-9.7
	c1.64-4.21,2.46-8.69,2.46-13.45C169.59,30.36,168.55,26.77,166.46,24.15z M159.86,42.17c-1.27,6.33-5.23,10.87-8.85,10.14
	c-3.62-0.73-5.53-6.44-4.26-12.77c1.27-6.33,5.23-10.87,8.85-10.14C159.22,30.12,161.13,35.84,159.86,42.17z"/>
<path d="M234.27,24.21c-2.66-2.65-6.44-3.97-11.34-3.97c-4.5,0-8.44,1.1-11.81,3.3s-5.99,5.29-7.86,9.26s-2.79,8.42-2.79,13.34
	s1.33,8.71,3.99,11.36c2.66,2.65,6.44,3.97,11.34,3.97c4.5,0,8.44-1.1,11.81-3.3s5.99-5.29,7.86-9.26s2.79-8.42,2.79-13.34
	S236.93,26.85,234.27,24.21z M226.4,42.58c-1.66,6.79-6.16,11.52-10.05,10.57c-3.89-0.95-5.69-7.23-4.02-14.02
	c1.66-6.79,6.16-11.52,10.05-10.57C226.26,29.51,228.06,35.79,226.4,42.58z"/>
<path d="M189.61,49.83c1.55,0,3.69-0.55,6.43-1.65v10.23c-3.19,1.57-7.17,2.36-11.95,2.36c-3.47,0-4.52-0.74-6.31-2.23
	s-2.69-3.93-2.69-7.33c0-1.78,0.28-3.98,0.84-6.61l2.95-14.13l-7,0l2.11-9.8l6.99,0.02l1.41-6.25l12.92-5.17l-2.17,10.96h10.12
	l-2.21,10.23h-10.16l-2.95,13.46c-0.38,1.8-0.56,3.04-0.56,3.69C187.4,49.1,188.13,49.83,189.61,49.83z"/>
</svg>
